<mxfile host="app.diagrams.net" modified="2022-09-06T11:17:30.317Z" agent="5.0 (Windows NT 10.0; Win64; x64) AppleWebKit/537.36 (KHTML, like Gecko) Chrome/104.0.5112.102 Safari/537.36 Edg/104.0.1293.70" etag="QWzRekJkQ4s_owrmvnu1" version="20.2.3" type="github" pages="2">
  <diagram name="Backend Arch" id="b5b7bab2-c9e2-2cf4-8b2a-24fd1a2a6d21">
    <mxGraphModel dx="1662" dy="794" grid="1" gridSize="10" guides="1" tooltips="1" connect="1" arrows="1" fold="1" page="1" pageScale="1" pageWidth="827" pageHeight="1169" background="none" math="0" shadow="0">
      <root>
        <mxCell id="0" />
        <mxCell id="1" parent="0" />
        <mxCell id="6e0c8c40b5770093-72" value="" style="shape=folder;fontStyle=1;spacingTop=10;tabWidth=194;tabHeight=22;tabPosition=left;html=1;rounded=0;shadow=0;comic=0;labelBackgroundColor=none;strokeWidth=1;fillColor=none;fontFamily=Verdana;fontSize=10;align=center;" parent="1" vertex="1">
          <mxGeometry x="326.5" y="114.5" width="1001" height="940" as="geometry" />
        </mxCell>
        <mxCell id="6e0c8c40b5770093-6" value="" style="group" parent="1" vertex="1" connectable="0">
          <mxGeometry x="465.5" y="140" width="130" height="70" as="geometry" />
        </mxCell>
        <mxCell id="6e0c8c40b5770093-4" value="Interactive&amp;nbsp;&lt;br&gt;UI for script &lt;br&gt;development" style="shape=folder;fontStyle=1;spacingTop=10;tabWidth=50;tabHeight=17;tabPosition=left;html=1;rounded=0;shadow=0;comic=0;labelBackgroundColor=none;strokeWidth=1;fontFamily=Verdana;fontSize=10;align=center;" parent="6e0c8c40b5770093-6" vertex="1">
          <mxGeometry width="130" height="70" as="geometry" />
        </mxCell>
        <mxCell id="6e0c8c40b5770093-5" value="" style="triangle;whiteSpace=wrap;html=1;rounded=0;shadow=0;comic=0;labelBackgroundColor=none;strokeWidth=1;fontFamily=Verdana;fontSize=10;align=center;rotation=-90;" parent="6e0c8c40b5770093-6" vertex="1">
          <mxGeometry x="117.25" y="22.25" width="9.5" height="20" as="geometry" />
        </mxCell>
        <mxCell id="6e0c8c40b5770093-7" value="" style="group" parent="1" vertex="1" connectable="0">
          <mxGeometry x="765.5" y="174.5" width="130" height="70" as="geometry" />
        </mxCell>
        <mxCell id="6e0c8c40b5770093-8" value="Excel File for&amp;nbsp;&lt;br&gt;script&amp;nbsp;&lt;br&gt;development" style="shape=folder;fontStyle=1;spacingTop=10;tabWidth=50;tabHeight=17;tabPosition=left;html=1;rounded=0;shadow=0;comic=0;labelBackgroundColor=none;strokeWidth=1;fontFamily=Verdana;fontSize=10;align=center;" parent="6e0c8c40b5770093-7" vertex="1">
          <mxGeometry width="130" height="70" as="geometry" />
        </mxCell>
        <mxCell id="6e0c8c40b5770093-9" value="" style="triangle;whiteSpace=wrap;html=1;rounded=0;shadow=0;comic=0;labelBackgroundColor=none;strokeWidth=1;fontFamily=Verdana;fontSize=10;align=center;rotation=-90;" parent="6e0c8c40b5770093-7" vertex="1">
          <mxGeometry x="100" y="25" width="15" height="20" as="geometry" />
        </mxCell>
        <mxCell id="6e0c8c40b5770093-18" value="" style="group" parent="1" vertex="1" connectable="0">
          <mxGeometry x="361.5" y="294.5" width="280" height="130" as="geometry" />
        </mxCell>
        <mxCell id="6e0c8c40b5770093-11" value="" style="shape=folder;fontStyle=1;spacingTop=10;tabWidth=123;tabHeight=24;tabPosition=left;html=1;rounded=0;shadow=0;comic=0;labelBackgroundColor=none;strokeWidth=1;fontFamily=Verdana;fontSize=10;align=center;" parent="6e0c8c40b5770093-18" vertex="1">
          <mxGeometry width="280" height="130" as="geometry" />
        </mxCell>
        <mxCell id="6e0c8c40b5770093-13" value="" style="triangle;whiteSpace=wrap;html=1;rounded=0;shadow=0;comic=0;labelBackgroundColor=none;strokeWidth=1;fontFamily=Verdana;fontSize=10;align=center;rotation=-90;" parent="6e0c8c40b5770093-18" vertex="1">
          <mxGeometry x="96" y="2" width="15" height="20" as="geometry" />
        </mxCell>
        <mxCell id="6e0c8c40b5770093-15" value="DB Reader for&amp;nbsp;&lt;br&gt;1. Keywords&lt;br&gt;2. Locators&lt;br&gt;3. Execution flag&lt;br&gt;4. Parameters" style="shape=folder;fontStyle=1;spacingTop=10;tabWidth=50;tabHeight=17;tabPosition=left;html=1;rounded=0;shadow=0;comic=0;labelBackgroundColor=none;strokeWidth=1;fontFamily=Verdana;fontSize=10;align=center;" parent="6e0c8c40b5770093-18" vertex="1">
          <mxGeometry x="18" y="40" width="112" height="80" as="geometry" />
        </mxCell>
        <mxCell id="6e0c8c40b5770093-17" value="DB Writer&lt;br&gt;1. Write Test results&lt;br&gt;2. Update execution&lt;br&gt;status" style="shape=folder;fontStyle=1;spacingTop=10;tabWidth=50;tabHeight=17;tabPosition=left;html=1;rounded=0;shadow=0;comic=0;labelBackgroundColor=none;strokeWidth=1;fontFamily=Verdana;fontSize=10;align=center;" parent="6e0c8c40b5770093-18" vertex="1">
          <mxGeometry x="148" y="40" width="112" height="70" as="geometry" />
        </mxCell>
        <mxCell id="6e0c8c40b5770093-19" value="" style="group" parent="1" vertex="1" connectable="0">
          <mxGeometry x="685.5" y="298.5" width="280" height="130" as="geometry" />
        </mxCell>
        <mxCell id="6e0c8c40b5770093-20" value="" style="shape=folder;fontStyle=1;spacingTop=10;tabWidth=123;tabHeight=24;tabPosition=left;html=1;rounded=0;shadow=0;comic=0;labelBackgroundColor=none;strokeWidth=1;fontFamily=Verdana;fontSize=10;align=center;" parent="6e0c8c40b5770093-19" vertex="1">
          <mxGeometry width="280" height="130" as="geometry" />
        </mxCell>
        <mxCell id="6e0c8c40b5770093-21" value="" style="triangle;whiteSpace=wrap;html=1;rounded=0;shadow=0;comic=0;labelBackgroundColor=none;strokeWidth=1;fontFamily=Verdana;fontSize=10;align=center;rotation=-90;" parent="6e0c8c40b5770093-19" vertex="1">
          <mxGeometry x="96" y="2" width="15" height="20" as="geometry" />
        </mxCell>
        <mxCell id="6e0c8c40b5770093-22" value="Excel Reader for&amp;nbsp;&lt;br&gt;1. Keywords&lt;br&gt;2. Locators&lt;br&gt;3. Execution flag&lt;br&gt;4. Parameters" style="shape=folder;fontStyle=1;spacingTop=10;tabWidth=50;tabHeight=17;tabPosition=left;html=1;rounded=0;shadow=0;comic=0;labelBackgroundColor=none;strokeWidth=1;fontFamily=Verdana;fontSize=10;align=center;" parent="6e0c8c40b5770093-19" vertex="1">
          <mxGeometry x="18" y="30" width="112" height="80" as="geometry" />
        </mxCell>
        <mxCell id="6e0c8c40b5770093-23" value="Excel Writer&lt;br&gt;1. Write Test results&lt;br&gt;2. Update execution&lt;br&gt;status" style="shape=folder;fontStyle=1;spacingTop=10;tabWidth=50;tabHeight=17;tabPosition=left;html=1;rounded=0;shadow=0;comic=0;labelBackgroundColor=none;strokeWidth=1;fontFamily=Verdana;fontSize=10;align=center;" parent="6e0c8c40b5770093-19" vertex="1">
          <mxGeometry x="148" y="40" width="112" height="70" as="geometry" />
        </mxCell>
        <mxCell id="6e0c8c40b5770093-30" value="" style="group" parent="1" vertex="1" connectable="0">
          <mxGeometry x="1045.5" y="294.5" width="230" height="480" as="geometry" />
        </mxCell>
        <mxCell id="6e0c8c40b5770093-24" value="" style="group" parent="6e0c8c40b5770093-30" vertex="1" connectable="0">
          <mxGeometry width="230" height="480" as="geometry" />
        </mxCell>
        <mxCell id="6e0c8c40b5770093-25" value="" style="shape=folder;fontStyle=1;spacingTop=10;tabWidth=123;tabHeight=24;tabPosition=left;html=1;rounded=0;shadow=0;comic=0;labelBackgroundColor=none;strokeWidth=1;fontFamily=Verdana;fontSize=10;align=center;" parent="6e0c8c40b5770093-24" vertex="1">
          <mxGeometry width="230" height="480" as="geometry" />
        </mxCell>
        <mxCell id="6e0c8c40b5770093-29" value="" style="triangle;whiteSpace=wrap;html=1;rounded=0;shadow=0;comic=0;labelBackgroundColor=none;strokeWidth=1;fontFamily=Verdana;fontSize=10;align=center;rotation=-90;" parent="6e0c8c40b5770093-24" vertex="1">
          <mxGeometry x="100" y="2" width="15" height="20" as="geometry" />
        </mxCell>
        <mxCell id="6e0c8c40b5770093-27" value="Test Base" style="shape=folder;fontStyle=1;spacingTop=10;tabWidth=50;tabHeight=17;tabPosition=left;html=1;rounded=0;shadow=0;comic=0;labelBackgroundColor=none;strokeWidth=1;fontFamily=Verdana;fontSize=10;align=center;" parent="6e0c8c40b5770093-24" vertex="1">
          <mxGeometry x="59" y="79" width="112" height="70" as="geometry" />
        </mxCell>
        <mxCell id="6e0c8c40b5770093-31" value="Test Runner" style="shape=folder;fontStyle=1;spacingTop=10;tabWidth=50;tabHeight=17;tabPosition=left;html=1;rounded=0;shadow=0;comic=0;labelBackgroundColor=none;strokeWidth=1;fontFamily=Verdana;fontSize=10;align=center;" parent="6e0c8c40b5770093-24" vertex="1">
          <mxGeometry x="59" y="205" width="112" height="70" as="geometry" />
        </mxCell>
        <mxCell id="6e0c8c40b5770093-28" value="Resources" style="shape=folder;fontStyle=1;spacingTop=10;tabWidth=50;tabHeight=17;tabPosition=left;html=1;rounded=0;shadow=0;comic=0;labelBackgroundColor=none;strokeWidth=1;fontFamily=Verdana;fontSize=10;align=center;" parent="6e0c8c40b5770093-24" vertex="1">
          <mxGeometry x="59" y="340" width="112" height="70" as="geometry" />
        </mxCell>
        <mxCell id="6e0c8c40b5770093-67" style="edgeStyle=none;rounded=0;html=1;entryX=0.43;entryY=0.173;entryPerimeter=0;dashed=1;labelBackgroundColor=none;startFill=0;endArrow=open;endFill=0;endSize=10;fontFamily=Verdana;fontSize=10;" parent="1" source="6e0c8c40b5770093-33" target="6e0c8c40b5770093-47" edge="1">
          <mxGeometry relative="1" as="geometry" />
        </mxCell>
        <mxCell id="6e0c8c40b5770093-71" style="edgeStyle=elbowEdgeStyle;rounded=0;html=1;dashed=1;labelBackgroundColor=none;startFill=0;endArrow=open;endFill=0;endSize=10;fontFamily=Verdana;fontSize=10;elbow=vertical;" parent="1" source="6e0c8c40b5770093-33" target="6e0c8c40b5770093-25" edge="1">
          <mxGeometry relative="1" as="geometry" />
        </mxCell>
        <mxCell id="6e0c8c40b5770093-33" value="" style="shape=folder;fontStyle=1;spacingTop=10;tabWidth=123;tabHeight=24;tabPosition=left;html=1;rounded=0;shadow=0;comic=0;labelBackgroundColor=none;strokeColor=#000000;strokeWidth=1;fillColor=#ffffff;fontFamily=Verdana;fontSize=10;fontColor=#000000;align=center;" parent="1" vertex="1">
          <mxGeometry x="440.5" y="474.5" width="515" height="240" as="geometry" />
        </mxCell>
        <mxCell id="6e0c8c40b5770093-64" style="edgeStyle=elbowEdgeStyle;rounded=0;html=1;entryX=0.559;entryY=0.251;entryPerimeter=0;dashed=1;labelBackgroundColor=none;startFill=0;endArrow=open;endFill=0;endSize=10;fontFamily=Verdana;fontSize=10;" parent="1" source="6e0c8c40b5770093-42" target="6e0c8c40b5770093-44" edge="1">
          <mxGeometry relative="1" as="geometry" />
        </mxCell>
        <mxCell id="6e0c8c40b5770093-65" style="edgeStyle=none;rounded=0;html=1;dashed=1;labelBackgroundColor=none;startFill=0;endArrow=open;endFill=0;endSize=10;fontFamily=Verdana;fontSize=10;entryX=-0.003;entryY=0.411;entryPerimeter=0;" parent="1" source="6e0c8c40b5770093-42" target="6e0c8c40b5770093-45" edge="1">
          <mxGeometry relative="1" as="geometry" />
        </mxCell>
        <mxCell id="6e0c8c40b5770093-66" style="edgeStyle=none;rounded=0;html=1;dashed=1;labelBackgroundColor=none;startFill=0;endArrow=open;endFill=0;endSize=10;fontFamily=Verdana;fontSize=10;entryX=1.013;entryY=0.444;entryPerimeter=0;" parent="1" source="6e0c8c40b5770093-42" target="6e0c8c40b5770093-43" edge="1">
          <mxGeometry relative="1" as="geometry" />
        </mxCell>
        <mxCell id="6e0c8c40b5770093-42" value="Actions" style="shape=folder;fontStyle=1;spacingTop=10;tabWidth=50;tabHeight=17;tabPosition=left;html=1;rounded=0;shadow=0;comic=0;labelBackgroundColor=none;strokeColor=#000000;strokeWidth=1;fillColor=#ffffff;fontFamily=Verdana;fontSize=10;fontColor=#000000;align=center;" parent="1" vertex="1">
          <mxGeometry x="647.5" y="524.5" width="112" height="70" as="geometry" />
        </mxCell>
        <mxCell id="6e0c8c40b5770093-43" value="Configs" style="shape=folder;fontStyle=1;spacingTop=10;tabWidth=50;tabHeight=17;tabPosition=left;html=1;rounded=0;shadow=0;comic=0;labelBackgroundColor=none;strokeColor=#000000;strokeWidth=1;fillColor=#ffffff;fontFamily=Verdana;fontSize=10;fontColor=#000000;align=center;" parent="1" vertex="1">
          <mxGeometry x="483.5" y="624.5" width="112" height="70" as="geometry" />
        </mxCell>
        <mxCell id="6e0c8c40b5770093-44" value="Listeners" style="shape=folder;fontStyle=1;spacingTop=10;tabWidth=50;tabHeight=17;tabPosition=left;html=1;rounded=0;shadow=0;comic=0;labelBackgroundColor=none;strokeColor=#000000;strokeWidth=1;fillColor=#ffffff;fontFamily=Verdana;fontSize=10;fontColor=#000000;align=center;" parent="1" vertex="1">
          <mxGeometry x="647.5" y="624.5" width="112" height="70" as="geometry" />
        </mxCell>
        <mxCell id="6e0c8c40b5770093-45" value="Utils" style="shape=folder;fontStyle=1;spacingTop=10;tabWidth=50;tabHeight=17;tabPosition=left;html=1;rounded=0;shadow=0;comic=0;labelBackgroundColor=none;strokeColor=#000000;strokeWidth=1;fillColor=#ffffff;fontFamily=Verdana;fontSize=10;fontColor=#000000;align=center;" parent="1" vertex="1">
          <mxGeometry x="799.5" y="624.5" width="112" height="70" as="geometry" />
        </mxCell>
        <mxCell id="6e0c8c40b5770093-68" style="edgeStyle=elbowEdgeStyle;rounded=0;html=1;entryX=0.628;entryY=0.26;entryPerimeter=0;dashed=1;labelBackgroundColor=none;startFill=0;endArrow=open;endFill=0;endSize=10;fontFamily=Verdana;fontSize=10;" parent="1" source="6e0c8c40b5770093-47" target="6e0c8c40b5770093-53" edge="1">
          <mxGeometry relative="1" as="geometry" />
        </mxCell>
        <mxCell id="6e0c8c40b5770093-69" style="edgeStyle=elbowEdgeStyle;rounded=0;html=1;entryX=0.643;entryY=0.246;entryPerimeter=0;dashed=1;labelBackgroundColor=none;startFill=0;endArrow=open;endFill=0;endSize=10;fontFamily=Verdana;fontSize=10;" parent="1" source="6e0c8c40b5770093-47" target="6e0c8c40b5770093-56" edge="1">
          <mxGeometry relative="1" as="geometry" />
        </mxCell>
        <mxCell id="6e0c8c40b5770093-70" style="edgeStyle=none;rounded=0;html=1;dashed=1;labelBackgroundColor=none;startFill=0;endArrow=open;endFill=0;endSize=10;fontFamily=Verdana;fontSize=10;exitX=1.003;exitY=0.363;exitPerimeter=0;" parent="1" source="6e0c8c40b5770093-47" target="6e0c8c40b5770093-25" edge="1">
          <mxGeometry relative="1" as="geometry" />
        </mxCell>
        <mxCell id="6e0c8c40b5770093-47" value="" style="shape=folder;fontStyle=1;spacingTop=10;tabWidth=123;tabHeight=24;tabPosition=left;html=1;rounded=0;shadow=0;comic=0;labelBackgroundColor=none;strokeWidth=1;fontFamily=Verdana;fontSize=10;align=center;" parent="1" vertex="1">
          <mxGeometry x="553.5" y="774.5" width="332" height="130" as="geometry" />
        </mxCell>
        <mxCell id="6e0c8c40b5770093-48" value="" style="triangle;whiteSpace=wrap;html=1;rounded=0;shadow=0;comic=0;labelBackgroundColor=none;strokeWidth=1;fontFamily=Verdana;fontSize=10;align=center;rotation=-90;" parent="1" vertex="1">
          <mxGeometry x="649.5" y="776.5" width="15" height="20" as="geometry" />
        </mxCell>
        <mxCell id="6e0c8c40b5770093-49" value="Exceptions" style="shape=folder;fontStyle=1;spacingTop=10;tabWidth=50;tabHeight=17;tabPosition=left;html=1;rounded=0;shadow=0;comic=0;labelBackgroundColor=none;strokeWidth=1;fontFamily=Verdana;fontSize=10;align=center;" parent="1" vertex="1">
          <mxGeometry x="571.5" y="814.5" width="112" height="70" as="geometry" />
        </mxCell>
        <mxCell id="6e0c8c40b5770093-51" value="" style="triangle;whiteSpace=wrap;html=1;rounded=0;shadow=0;comic=0;labelBackgroundColor=none;strokeColor=#000000;strokeWidth=1;fillColor=#ffffff;fontFamily=Verdana;fontSize=10;fontColor=#000000;align=center;rotation=-90;" parent="1" vertex="1">
          <mxGeometry x="538.5" y="476.5" width="15" height="20" as="geometry" />
        </mxCell>
        <mxCell id="6e0c8c40b5770093-52" value="" style="group" parent="1" vertex="1" connectable="0">
          <mxGeometry x="576.5" y="954.5694795496323" width="130" height="70" as="geometry" />
        </mxCell>
        <mxCell id="6e0c8c40b5770093-53" value="Reports" style="shape=folder;fontStyle=1;spacingTop=10;tabWidth=50;tabHeight=17;tabPosition=left;html=1;rounded=0;shadow=0;comic=0;labelBackgroundColor=none;strokeWidth=1;fontFamily=Verdana;fontSize=10;align=center;" parent="6e0c8c40b5770093-52" vertex="1">
          <mxGeometry width="130" height="70" as="geometry" />
        </mxCell>
        <mxCell id="6e0c8c40b5770093-54" value="" style="triangle;whiteSpace=wrap;html=1;rounded=0;shadow=0;comic=0;labelBackgroundColor=none;strokeWidth=1;fontFamily=Verdana;fontSize=10;align=center;rotation=-90;" parent="6e0c8c40b5770093-52" vertex="1">
          <mxGeometry x="100" y="25" width="15" height="20" as="geometry" />
        </mxCell>
        <mxCell id="6e0c8c40b5770093-55" value="" style="group" parent="1" vertex="1" connectable="0">
          <mxGeometry x="743.5" y="954.5694795496323" width="130" height="70" as="geometry" />
        </mxCell>
        <mxCell id="6e0c8c40b5770093-56" value="Videos" style="shape=folder;fontStyle=1;spacingTop=10;tabWidth=50;tabHeight=17;tabPosition=left;html=1;rounded=0;shadow=0;comic=0;labelBackgroundColor=none;strokeWidth=1;fontFamily=Verdana;fontSize=10;align=center;" parent="6e0c8c40b5770093-55" vertex="1">
          <mxGeometry width="130" height="70" as="geometry" />
        </mxCell>
        <mxCell id="6e0c8c40b5770093-57" value="" style="triangle;whiteSpace=wrap;html=1;rounded=0;shadow=0;comic=0;labelBackgroundColor=none;strokeWidth=1;fontFamily=Verdana;fontSize=10;align=center;rotation=-90;" parent="6e0c8c40b5770093-55" vertex="1">
          <mxGeometry x="100" y="25" width="15" height="20" as="geometry" />
        </mxCell>
        <mxCell id="6e0c8c40b5770093-59" style="rounded=0;html=1;dashed=1;labelBackgroundColor=none;startFill=0;endArrow=open;endFill=0;endSize=10;fontFamily=Verdana;fontSize=10;entryX=0.592;entryY=0.2;entryPerimeter=0;edgeStyle=elbowEdgeStyle;" parent="1" edge="1">
          <mxGeometry relative="1" as="geometry">
            <mxPoint x="843.3275862068965" y="244.5" as="sourcePoint" />
            <mxPoint x="843.3275862068965" y="320.84482758620686" as="targetPoint" />
          </mxGeometry>
        </mxCell>
        <mxCell id="6e0c8c40b5770093-60" style="rounded=0;html=1;entryX=0.452;entryY=0.1;entryPerimeter=0;dashed=1;labelBackgroundColor=none;startFill=0;endArrow=open;endFill=0;endSize=10;fontFamily=Verdana;fontSize=10;" parent="1" source="6e0c8c40b5770093-11" target="6e0c8c40b5770093-33" edge="1">
          <mxGeometry relative="1" as="geometry" />
        </mxCell>
        <mxCell id="6e0c8c40b5770093-61" style="edgeStyle=none;rounded=0;html=1;entryX=0.69;entryY=0.102;entryPerimeter=0;dashed=1;labelBackgroundColor=none;startFill=0;endArrow=open;endFill=0;endSize=10;fontFamily=Verdana;fontSize=10;" parent="1" source="6e0c8c40b5770093-20" target="6e0c8c40b5770093-33" edge="1">
          <mxGeometry relative="1" as="geometry" />
        </mxCell>
        <mxCell id="6e0c8c40b5770093-62" style="edgeStyle=none;rounded=0;html=1;dashed=1;labelBackgroundColor=none;startFill=0;endArrow=open;endFill=0;endSize=10;fontFamily=Verdana;fontSize=10;exitX=1.002;exitY=0.668;exitPerimeter=0;" parent="1" source="6e0c8c40b5770093-20" target="6e0c8c40b5770093-25" edge="1">
          <mxGeometry relative="1" as="geometry" />
        </mxCell>
        <mxCell id="6e0c8c40b5770093-63" style="edgeStyle=orthogonalEdgeStyle;rounded=0;html=1;dashed=1;labelBackgroundColor=none;startFill=0;endArrow=open;endFill=0;endSize=10;fontFamily=Verdana;fontSize=10;" parent="1" source="6e0c8c40b5770093-11" target="6e0c8c40b5770093-25" edge="1">
          <mxGeometry relative="1" as="geometry">
            <Array as="points">
              <mxPoint x="665.5" y="359.5" />
              <mxPoint x="665.5" y="464.5" />
            </Array>
          </mxGeometry>
        </mxCell>
        <mxCell id="6e0c8c40b5770093-73" value="Playwright Automation Framework" style="text;html=1;align=left;verticalAlign=top;spacingTop=-4;fontSize=10;fontFamily=Verdana" parent="1" vertex="1">
          <mxGeometry x="327.5" y="114.5" width="130" height="20" as="geometry" />
        </mxCell>
        <mxCell id="b0lKKE864avwty8q6Efk-6" style="edgeStyle=orthogonalEdgeStyle;rounded=0;orthogonalLoop=1;jettySize=auto;html=1;entryX=0.505;entryY=0.196;entryDx=0;entryDy=0;entryPerimeter=0;" edge="1" parent="1" source="b0lKKE864avwty8q6Efk-1" target="6e0c8c40b5770093-11">
          <mxGeometry relative="1" as="geometry" />
        </mxCell>
        <mxCell id="b0lKKE864avwty8q6Efk-1" value="SQL/ DB" style="shape=cylinder3;whiteSpace=wrap;html=1;boundedLbl=1;backgroundOutline=1;size=15;" vertex="1" parent="1">
          <mxGeometry x="460" y="220" width="100" height="70" as="geometry" />
        </mxCell>
        <mxCell id="b0lKKE864avwty8q6Efk-3" style="edgeStyle=orthogonalEdgeStyle;rounded=0;orthogonalLoop=1;jettySize=auto;html=1;exitX=0.5;exitY=1;exitDx=0;exitDy=0;exitPerimeter=0;entryX=0.855;entryY=0;entryDx=0;entryDy=4.35;entryPerimeter=0;" edge="1" parent="1" source="6e0c8c40b5770093-4" target="b0lKKE864avwty8q6Efk-1">
          <mxGeometry relative="1" as="geometry" />
        </mxCell>
      </root>
    </mxGraphModel>
  </diagram>
  <diagram id="EgbUMGRf8gCPsdw_o-xl" name="Interactive UI">
    <mxGraphModel dx="1583" dy="1856" grid="1" gridSize="10" guides="1" tooltips="1" connect="1" arrows="1" fold="1" page="1" pageScale="1" pageWidth="850" pageHeight="1100" math="0" shadow="0">
      <root>
        <mxCell id="0" />
        <mxCell id="1" parent="0" />
        <object label="" TestData="" TestSuite="" ExecutionFlag="" id="OMmJDwg539r8jQ-gF5AK-7">
          <mxCell style="strokeWidth=1;shadow=0;dashed=0;align=center;html=1;shape=mxgraph.mockup.containers.marginRect2;rectMarginTop=32;strokeColor=#666666;gradientColor=none;fontFamily=Helvetica;fontSize=17;fontColor=#666666;" vertex="1" parent="1">
            <mxGeometry x="14" y="-90" width="836.28" height="870" as="geometry" />
          </mxCell>
        </object>
        <mxCell id="OMmJDwg539r8jQ-gF5AK-8" value="&lt;font style=&quot;font-size: 10px;&quot;&gt;Test Suites&lt;/font&gt;" style="strokeColor=inherit;fillColor=inherit;gradientColor=inherit;strokeWidth=1;shadow=0;dashed=0;align=center;html=1;shape=mxgraph.mockup.containers.rrect;rSize=0;fontSize=17;fontColor=#666666;gradientColor=none;fontFamily=Helvetica;" vertex="1" parent="OMmJDwg539r8jQ-gF5AK-7">
          <mxGeometry width="60" height="25" relative="1" as="geometry">
            <mxPoint x="10" as="offset" />
          </mxGeometry>
        </mxCell>
        <mxCell id="OMmJDwg539r8jQ-gF5AK-9" value="&lt;font style=&quot;font-size: 10px;&quot;&gt;Test Cases&lt;/font&gt;" style="strokeWidth=1;shadow=0;dashed=0;align=center;html=1;shape=mxgraph.mockup.containers.rrect;rSize=0;fontSize=17;fontColor=#ffffff;strokeColor=#008cff;fillColor=#008cff;fontFamily=Helvetica;" vertex="1" parent="OMmJDwg539r8jQ-gF5AK-7">
          <mxGeometry width="60" height="25" relative="1" as="geometry">
            <mxPoint x="75" as="offset" />
          </mxGeometry>
        </mxCell>
        <mxCell id="OMmJDwg539r8jQ-gF5AK-10" value="&lt;font style=&quot;font-size: 8px;&quot;&gt;Model Designer&lt;/font&gt;" style="strokeColor=inherit;fillColor=inherit;gradientColor=inherit;strokeWidth=1;shadow=0;dashed=0;align=center;html=1;shape=mxgraph.mockup.containers.rrect;rSize=0;fontSize=17;fontColor=#666666;gradientColor=none;fontFamily=Helvetica;" vertex="1" parent="OMmJDwg539r8jQ-gF5AK-7">
          <mxGeometry width="60" height="25" relative="1" as="geometry">
            <mxPoint x="140" as="offset" />
          </mxGeometry>
        </mxCell>
        <mxCell id="OMmJDwg539r8jQ-gF5AK-11" value="" style="strokeWidth=1;shadow=0;dashed=0;align=center;html=1;shape=mxgraph.mockup.containers.topButton;rSize=5;strokeColor=#008cff;fillColor=#008cff;gradientColor=none;resizeWidth=1;movable=0;deletable=1;fontFamily=Helvetica;fontSize=17;fontColor=#666666;" vertex="1" parent="OMmJDwg539r8jQ-gF5AK-7">
          <mxGeometry width="810" height="7" relative="1" as="geometry">
            <mxPoint y="25" as="offset" />
          </mxGeometry>
        </mxCell>
        <mxCell id="OMmJDwg539r8jQ-gF5AK-12" value="&lt;span style=&quot;font-size: 8px;&quot;&gt;Test Data&lt;/span&gt;" style="strokeColor=inherit;fillColor=inherit;gradientColor=inherit;strokeWidth=1;shadow=0;dashed=0;align=center;html=1;shape=mxgraph.mockup.containers.rrect;rSize=0;fontSize=17;fontColor=#666666;gradientColor=none;fontFamily=Helvetica;" vertex="1" parent="OMmJDwg539r8jQ-gF5AK-7">
          <mxGeometry width="60" height="25" relative="1" as="geometry">
            <mxPoint x="210" as="offset" />
          </mxGeometry>
        </mxCell>
        <mxCell id="OMmJDwg539r8jQ-gF5AK-13" value="&lt;span style=&quot;font-size: 8px;&quot;&gt;Reports&lt;/span&gt;" style="strokeColor=inherit;fillColor=inherit;gradientColor=inherit;strokeWidth=1;shadow=0;dashed=0;align=center;html=1;shape=mxgraph.mockup.containers.rrect;rSize=0;fontSize=17;fontColor=#666666;gradientColor=none;fontFamily=Helvetica;" vertex="1" parent="OMmJDwg539r8jQ-gF5AK-7">
          <mxGeometry width="60" height="25" relative="1" as="geometry">
            <mxPoint x="280" as="offset" />
          </mxGeometry>
        </mxCell>
        <mxCell id="OMmJDwg539r8jQ-gF5AK-120" value="" style="shape=image;verticalLabelPosition=bottom;labelBackgroundColor=default;verticalAlign=top;aspect=fixed;imageAspect=0;image=data:image/png,iVBORw0KGgoAAAANSUhEUgAAAdMAAAB/CAYAAAC0VyiMAAAAAXNSR0IArs4c6QAAAARnQU1BAACxjwv8YQUAAAAJcEhZcwAADsMAAA7DAcdvqGQAAAw2SURBVHhe7dw9dts6E4Bh8FuLkyLWCuwV2GlSuU0nl06TLmW6NHZpd7d1lSb2CqIVKCki70XfAARIEPwBpZEsJXyfc3QuTVIkMANy+KObYi2M+PXrlzk9PbWTkzXVGJD74zf1HDFGD48cNKXx+J//LwAA2BLFFAAApWK5XLrHvLPZzM0AAAB5Uj/9lBTT8M60KArjJydrqjEg98dv6jlijB4eOWhK48FjXgAAlCimAAAoUUwBAFCimAIAoEQxnYQXc3demKI4N3cvftZBbdqesP61efZzjtezuS7+lrZifw41Dv6mY+U17T8f7WL6cmfO3U67PpqT8cgkP18393l+J988hHbwX+7OyzZd/8vDNPS7/LS62hgfx3DA/m3tVTrY8dmMc/icj97hLk/y3W053HH52gUs7K/5ebXuH7JGJPseP/5Su89Zu5ie3Jif67X7ye/q9szNOrtdub/X65/m5sTN2gtXrC4fjJk/+f1JG64ezcfts7M7ksSPnxYyMTdP9xflvH/amTmT9D98bV7MvPx4NAu/7LgcS3svzL0bu/cytQcHPD6ds1uziva/+PTmcEUsaov7HNVxuedx4Mi5KOr/q3X/UGPQFtI3n8yiyvvKXD1+G1kM95+PLR/zpldGzauR5+tomTvQ7PpvjKtF5sFc2vmtO85n862jWJ3c/DQ/Q3aSu9b4qqS9z2C4rePINj5KEuWkfLuKk9G37TA/3pe/mj6/NtfpMt+vqj/h6quKUXolHn3Xr3t+d+fX8VdacazOv5nfbuVNzMzVlRwoi0fzI+qDy9H8ylz5ObWBNlrZ9mjztGF7e8dS2Y/zu+dGe+ohlVse+hGueHPri6Qt7qN6IjMcy+2OzzZ7bD7NZeLhsu5PZ1wHtt+bh+2Ep0fVdvz26+1mxlly51OGx8+rOhm2Yb/b17ewTnznM3SMjBgn2xqK8c7HXjAc563G4Oq3nIPF7K0pK8KJufnpz8eDOYr/tvkY2tdwuwfJ1YQTTVbkqsPNl6sOP8dareViRObP13JV5MgBVf/9NG98Z3U7X5eT7e81+O/JXamfkVjdrs/ObmUr7o/mtjbYZ6OtiWYMntZynnDrzt13zLrZtOFtt2IXtTEsC9sLf8vlXdm/Rn/qdpSrh/2elX20cXHL4/b57yTbq76TsMtq0f78ttM+zJ/SvmfamG1PLk/t5bUt2js0lqrthe309KV3ef/2yvxE7bV/Ntqcfrdmv5961eNT5rp2V3ErNdowGNeO7Q+u39Tsf3dbSnF80/UysWmtL3/baZ+j+twUttM/ftvz4nZZ6TbC8p5x0tC1vyBZNhTjkWMvaOag9KpjMOTBftLcb5yjrn1l2p1I47H5nenLD/NoK/r8Q3WHdvFB0i4V/nt0FbV4/OEq/cnN/ajb/pc/9T/L1Mk+Wvh5U12RvHX/+uHS/ImuGlr7HNnWYQ/m4cH+d24+1Lek2W2f3HyRb9Rtev5uN3Jmrt6fmJP3VzIla7pGvJgfsqG5VGyz+G1Wdo6LRbmufFG2KH/dfvb7OTHv7R2YXKM91rdgdgXzOTQkfOfqfRmvi89GBsnmTt6b8mYv7kMSByvXxlx7dpInMba9I8aSjed/bhDVffltkxPklqeq/FwY17WwP3e17XNdbUthT8dnn5MyeKUxcY1tun5q8cm8ad1BXJh7OQPa/l4Wl27czb/4feRik45Tu62qfUobH8fJOOnk76qG7qCGYrzrsRfsawzavqxu3bmzyv1O7qI95Xlo82IabrUfLn0S5WPfcwYX9+Wjn2qgj3vB2zgoe8SPBuJd9u4z19ZR5uYpHJxx4rLb9geDe+z4Ysr6eGXKcVue9M3yj2xvZX4vzsy7D+9kkJSDfPVbtuzX7brI6IxV9eij+zvb8QeY7cPznflquxcNtCDXxmx7dpIna1x7rd6xNGCZOcvnlnd6Y/MeTqjlhZU5e2felEs3t6fjs0+a203juk0eKlJ45KbD3h7IJ3pXd/HBXcg6VXESmdiEvszejjmzbyZ3jGwnfmfa/66yN8a7HnvBPsegLai2v1FR3dlvapTnoS3fmdoxGl4415/wqvPivvx75W4/HszXMZ11iRUP3zsDa9+F2H7JXbzbtktGZGifQ20dJUp+mrjBOJTV1Hz6+NFd8dRXvPFJ/4+U0Jl5e2ELrB3Yd8bdUPni2HXA5Q56/UFaK++ipQ+X/p1xdWaq5do4tj3qPIkx7c2NpT65k6zmJOx+yFPY9zjS5v/0d0M7Pz57uAs/ibO9u9k0rtvmIefl7qv0ytvwmLW2uijK2OY43oUxMd712Av2OgZtUfWdWQw+EtrctuehzYupv+pbfOr+FZVNXnjB3RxAmcc4EpwvLjZyBxi/dX++jl6Yyx2cu2x6LguO17vPTFs3cXH/5Lf1sXycMmbb4XHmYuFO7OXjlFI46T9+fTQLd/dUxmfx+CgRksEfnk2G/fhHItLb8gpS5rYeXwb+wqT6zvM3/7J9C+Eu2gp31qlcG3Pt2WGeRrXX6R5LleokXP8wrhHv3PKRwq+Nb1fhwFX+GjITy62Pzw7hRG3mX6I298W1b/uZPGzqxf/q3t21hmPWxyITm/D6pR7Hz+baPo06eSuXuyJc6LeOpxGx2+Y43pme8+aux16wpzEYf88qX+NIBG0AszlKdexLex6SIDrRZKX75bJVvyyvP+mLXf+RS6LK0AtkL+yz+sQ/Bojmz+f2JXb6ctl/4n0OtrXJLqt1/AAg/HCmp01d26760+pv/d0qvtUPc5L2xXFLl7devHvVtuQj+35y7QjxarLr1Nr9bo+Djpf3Q220su0ZimXXjwWCbdrb3FdzLPllZ/P1PBpTdXhzy3v2FeVfLqhlebK/xqfdTzs/9brHZ9c2030312nGVbS2n1k/YpfXutti+1LGts5HdfxV/RyKjWiM46gtufHb6tumx4hvV+84iQ0dD1uM9cana5sluzz1umMw+Z584q8O5yiTj2pf42Nil8Wqv9IFU7SXGPgEtwfb8SD3sfZJrSm3fDOtE2Y4wBtnCXLEGN29sWMvIAdNaTy2fmeKccKjiH2+F8Hfyv8wzb4zD8Mj/AgC2CvG3q5RTPfpxf+i9FXei+DvY/+nc/teL/pfHMpfixzZv+aDfw9jb9cKe3vqJiSYfnKyphoDcn/8pp4jxujhkYOmNB7Fcrl0f81m8a+qAADAEKmffkqKqVRWV0y56phuDMj98Zt6jhijh0cOmtJ48M4UAAAliikAAEoUUwAAlCimAAAoUUwBAFCimAIAoEQxBQBAiWIKAIASxRQAACWKKQAAShRTAACUKKYAAChRTAEAUKKYAgCgRDEFAECJYgoAgBLFFAAAJYopAABKxXK5XNuJ2WzmZgAAgDypn35KiulauImiMH5ysqYaA3J//KaeI8bo4ZGDpjQePOYFAECJYgoAgBLFFAAAJYopAABKFFMAAJQopgAAKFFMAQBQopgCAKBEMQUAQIliCgCAEsUUAAAliikAAEoUUwAAlCimAAAoUUwBAFCimAIAoEQxBQBAiWIKAIBSsVwu13ZiNpu5GQAAIE/qp5+SYroWbqIojJ+crKnGgNwfv6nniDF6eOSgKY0Hj3kBAFCimAIAoEQxBQBAiWIKAIASxRQAACWKKQAAShRTAACUKKYAAChRTAEAUKKYAgCgRDEFAECJYgoAgBLFFAAAJYopAABKFFMAAJQopgAAKFFMAQBQopgCAKBULJfLtZ2YzWZuBgAAyJP66aekmK6FmygK4ycna6oxIPfHb+o5YoweHjloSuPBY14AAJQopgAAKFFMAQBQopgCAKBEMQUAQIliCgCAEsUUAAAliikAAEoUUwAAlCimAAAoUUwBAFCimAIAoEQxBQBAiWIKAIASxRQAACWKKQAAShRTAACUKKYAACgVy+VybSdms5mbAQAA8qR++ikppmvhJorC+MnJmmoMyP3xm3qOGKOHRw6a0njwmBcAACWKKQAAShRTAACUKKYAAChRTAEAUKKYAgCgRDEFAECJYgoAgBLFFAAAJYopAABKFFMAAJQopgAAKFFMAQBQopgCAKBEMQUAQIliCgCAEsUUAAAliikAAErFcrlc24nZbOZmAACAPKmffkqK6VrYiV+/fpnT01M3c6qmGgNyf/ymniPG6OGRg6Y0HjzmBQBAiWIKAICKMf8HwEcmA/Dgo9AAAAAASUVORK5CYII=;" vertex="1" parent="OMmJDwg539r8jQ-gF5AK-7">
          <mxGeometry x="20" y="60" width="656.37" height="178.5" as="geometry" />
        </mxCell>
        <object label="" TestData="" TestSuite="" ExecutionFlag="" id="OMmJDwg539r8jQ-gF5AK-121">
          <mxCell style="strokeWidth=1;shadow=0;dashed=0;align=center;html=1;shape=mxgraph.mockup.containers.marginRect2;rectMarginTop=32;strokeColor=#666666;gradientColor=none;fontFamily=Helvetica;fontSize=17;fontColor=#666666;" vertex="1" parent="OMmJDwg539r8jQ-gF5AK-7">
            <mxGeometry y="300" width="836.28" height="570" as="geometry" />
          </mxCell>
        </object>
        <mxCell id="OMmJDwg539r8jQ-gF5AK-122" value="&lt;font style=&quot;font-size: 10px;&quot;&gt;Test Suites&lt;/font&gt;" style="strokeColor=inherit;fillColor=inherit;gradientColor=inherit;strokeWidth=1;shadow=0;dashed=0;align=center;html=1;shape=mxgraph.mockup.containers.rrect;rSize=0;fontSize=17;fontColor=#666666;gradientColor=none;fontFamily=Helvetica;" vertex="1" parent="OMmJDwg539r8jQ-gF5AK-121">
          <mxGeometry width="60" height="25" relative="1" as="geometry">
            <mxPoint x="10" as="offset" />
          </mxGeometry>
        </mxCell>
        <mxCell id="OMmJDwg539r8jQ-gF5AK-124" value="&lt;font style=&quot;font-size: 8px;&quot;&gt;Model Designer&lt;/font&gt;" style="strokeColor=inherit;fillColor=inherit;gradientColor=inherit;strokeWidth=1;shadow=0;dashed=0;align=center;html=1;shape=mxgraph.mockup.containers.rrect;rSize=0;fontSize=17;fontColor=#666666;gradientColor=none;fontFamily=Helvetica;" vertex="1" parent="OMmJDwg539r8jQ-gF5AK-121">
          <mxGeometry width="60" height="25" relative="1" as="geometry">
            <mxPoint x="140" as="offset" />
          </mxGeometry>
        </mxCell>
        <mxCell id="OMmJDwg539r8jQ-gF5AK-125" value="" style="strokeWidth=1;shadow=0;dashed=0;align=center;html=1;shape=mxgraph.mockup.containers.topButton;rSize=5;strokeColor=#008cff;fillColor=#008cff;gradientColor=none;resizeWidth=1;movable=0;deletable=1;fontFamily=Helvetica;fontSize=17;fontColor=#666666;" vertex="1" parent="OMmJDwg539r8jQ-gF5AK-121">
          <mxGeometry width="810" height="7" relative="1" as="geometry">
            <mxPoint y="25" as="offset" />
          </mxGeometry>
        </mxCell>
        <mxCell id="OMmJDwg539r8jQ-gF5AK-126" value="&lt;span style=&quot;font-size: 8px;&quot;&gt;Test Data&lt;/span&gt;" style="strokeColor=inherit;fillColor=inherit;gradientColor=inherit;strokeWidth=1;shadow=0;dashed=0;align=center;html=1;shape=mxgraph.mockup.containers.rrect;rSize=0;fontSize=17;fontColor=#666666;gradientColor=none;fontFamily=Helvetica;" vertex="1" parent="OMmJDwg539r8jQ-gF5AK-121">
          <mxGeometry width="60" height="25" relative="1" as="geometry">
            <mxPoint x="210" as="offset" />
          </mxGeometry>
        </mxCell>
        <mxCell id="OMmJDwg539r8jQ-gF5AK-127" value="&lt;span style=&quot;font-size: 8px;&quot;&gt;Reports&lt;/span&gt;" style="strokeColor=inherit;fillColor=inherit;gradientColor=inherit;strokeWidth=1;shadow=0;dashed=0;align=center;html=1;shape=mxgraph.mockup.containers.rrect;rSize=0;fontSize=17;fontColor=#666666;gradientColor=none;fontFamily=Helvetica;" vertex="1" parent="OMmJDwg539r8jQ-gF5AK-121">
          <mxGeometry width="60" height="25" relative="1" as="geometry">
            <mxPoint x="280" as="offset" />
          </mxGeometry>
        </mxCell>
        <mxCell id="OMmJDwg539r8jQ-gF5AK-129" value="&lt;font style=&quot;font-size: 10px;&quot;&gt;Test Suites&lt;/font&gt;" style="strokeWidth=1;shadow=0;dashed=0;align=center;html=1;shape=mxgraph.mockup.containers.rrect;rSize=0;fontSize=17;fontColor=#ffffff;strokeColor=#008cff;fillColor=#008cff;fontFamily=Helvetica;" vertex="1" parent="OMmJDwg539r8jQ-gF5AK-121">
          <mxGeometry x="10" width="60" height="25" as="geometry" />
        </mxCell>
        <mxCell id="OMmJDwg539r8jQ-gF5AK-131" value="" style="shape=image;verticalLabelPosition=bottom;labelBackgroundColor=default;verticalAlign=top;aspect=fixed;imageAspect=0;image=data:image/png,iVBORw0KGgoAAAANSUhEUgAAAkUAAAB5CAYAAAA3WVU+AAAAAXNSR0IArs4c6QAAAARnQU1BAACxjwv8YQUAAAAJcEhZcwAADsMAAA7DAcdvqGQAAAu6SURBVHhe7d29dtPYFgBg+T5LoJjFEyRPEGioaKcLJTS3uyUdTVKSblqqaSBPMHmCWRQk7+K7j6TjSLL+7Nghxt+3lohlSzr7/EjalpSwKIpiGRMAwFErk6JQzXEQFotF6rR67ngca70B2L90jvlP/RoA4KhJigAAgqQIACBIigAAwoEnRTfF+8WiWCzexytgyM37tJ+cFVf39RtP6r64OmuWn+d/xX5bHzPOriIKtjfVjt1jc7fP5xy7n+L4bjwctPur4iz13/vdjZCHpChvvHd6zMF0xgGwU/bZ1oU99mCb1+9u41cexEfsrc8OQT5gtqcd7ht79MTjKcbJp+v4efG/4sNJeqPvRPBMxzhHwvjbrefcnjuM7eRD8b+L+Hn9aWfnu4ekKDb+z3JZ/srz3eVp+dbp5V05v1z+Ux9M9yCd2F98LG5PL4u7sqy74t3XzzMb67z4Uq7zJV7t2nXx6blnFb+qz56Vi+J7PW5SE1y/PpTE6Oncf/ta3MbPi7e730ug39Sxec6xe5/Hd34X529TVnRbfP22m/P1hrfPcoaXp/bViOoSfT2VZ6a0/IviYzoiR5Lxeu3babj7UR6wi1cvi+ocflJ8+KfeCfKVkNVZLpffdxl+rKzxuNecnhYpxbj9OJKc3bxvbK9xdauO+ezqplVmqkKzfdon7g3j28RQnEnns3Kq22y9L5+7k+LNuyox/PdnXcfJPrpqX55/kj7dcpwOxDynn+5+pMJOiz9eVPPzTYzLuWPr7HPxo3572HhZQ/V8zDj91td3Q2Mj/m1fmWz2Z3M+1HXvjp/pfWvz/m/J5dTTatOD/VTVqW9cr4z1ca23HVd16Ymz1Pw8ve7bJ/q2MdJGwXhI+trzffG+G1euQxnHjLEwFs+aoWX7YquPf0Pjd8qLP6rz9Y+7an4Hll13l6fpL+QtTy/v6neSu2V8E4/3L5bxzbz0/aIx//2itc7d5cWyerm+Xsvd5TIqVK5bnF7G0g35s4u8Zt7W6cC2+8qaiLulXjbi+N5qg842UlyrWHs+K+tTx9ioX7Wt78vIax+W3yi+StpWV2+fzYizt36DfflrtevdbccUZ6MNZvVRsXwYWnOW31Wfrn8+uU5fzLP6ab2dVu+t6pt0y58Rz1B7dbdfx7nJftsqa6ieW43T3B65HXPZ6327aufVOt14q3XyuMvL5/lu/cs4B2OeaIPeuJq6fRrz6fWcflrF09MWM9btbce15TedT6aXmTVORk3U42DHw/r6reNj0ip7YixMxdMytez656vyu+O3fD2l2x/bS/WPaYMTbFqh2QN1o5Zv1a8fKpX1NUBHo4Nb21grc6qjesqairulXr8sv9nQ43WoOryzE63aYX3d3uVnxVdJn3X19llHq9yyjNyOef06xsG+/LXa9e7uCHn+oU5N4320br99usU47Yt5Vj/V7dJaJrdV31THNFmHtvWx1RyLub65bzr1nyprqJ6z6t+13h5535lq5+a+1drfWvFXdbu4SOtU9auWbbfNWsxTbdAXV1NPjH1a/TTVFh2brdsd45vOJ533th0no37T8VCX227Pdl036s+peJoml+2JradN5+ur63ZSDPNvn+XbXNevHy6JvU5Pb9bOvxTRyOmeU/Gi/HzosmmP/GzM3WV5GSxt48/h63KbmYp70HnxpaxQerZo/bJc85LnrM0N2Tq+eQbjLC855vuw98W3rxHF6R9FeYflMX355OpLsIvX8eq0uLx7eJZqso9Wt2wrv7RP567TjPmx/bR6ji9N1TNZKzPiGWqv+5//1q9mmiprqJ47Hqer265Jo5376nPy8lX9Kpy8Kco7t//+jD3prvhxe1r88TbtX/8WaZPl7cvTd8WbtMGhmLfp/4Yc46uX659uM65zWzxm3Z3bdpxs6ZDHQ7/zonr85mvx7f6+KKuR4xhRtsPceJJNlq2Njd+ntvGv5EcmVx9EH6Yv9VNw51+q+cgwY26LB5VTclSOkOi3Hd4fTMbiHnT+3/JEcfvx7+JHY8zfX52VB4jIesvt1CE/ylbxTZgT5+3HFzFo0z3eSCj++rDawR7dl08mP2idpoeEaNM+ei59uuk6++6noXjG2qt1gtjAWN2H6rnL+g8dkPvq0z6I18+zpZPNzc849b0qXp6nE2P60nFV/B3t1Dx5jcX82ONANyHZdlynej1m3X3aZpxs43cYD135oeSPf/5ZlN+D371ZxTGk2Q6bxLNN7HtLqDcwPyk6fxunn3QS7X/4OO1A+UGy9qA5KarZKkvuaq6X3JQjJnbE9JsyJy9jOIXrv6sybz7XD2gN6SlrIu5xJ8WHv9LVq+viugqrIT+4elMN8m09Kr45+uOsfiMpXVnJA7adUPT35aHZtI+eqk93M0436qfbH/GddQOz4hlor/zg49dv1QOUU/vtRFlD9Ryuf37Ic+RB0Phm/rks7Kb4XAZ3UQz+cl6OL9cn/i2vrDbWOXnzLuocJ71PsV9dvI3v5FUf3379Gr1cH8/CYMxb9H9TVX4zxpvi/dlV3ecT4zraoroy39cW0+vObsdR4+eJ0pbj5BjHw2B71l/0i9vb8vj/rnuZaGgsbBLP5LLrsQ2N3/wA+MNVv76+TFfj6pc7EufEtshYB+7v1fcdW1O+j5fv69VTfL1YyfcY07R2D7SzXkzNVfO9xrxu9QB0vg/acy+xt6yxuJvq7XVijG9InXXa26vuF9cxrd3rXY+x2l6uQzI3vkr6vKu/z0biHC1zpC9/oRTLgxz/UDvN6KP2QJtefpd9uuk47Y15Xj8NxtYa5+t1Gq/DSHuVH6f5+vMoZ3K/HS1rqJ5T7ze3n1XlnF5+b637sGpfO4dmf5VTd9sP8a/2wVUbNJcdijkZaYOhuJpaMea2Huun+rPTi+VFX1vMWHewHdf6YGo+NOMvx2ZfP4600Wr5eloF07edbKIev8t4aOzr+VzR3v/rsgbHQjLW9l0Ty/bF1mrT7vjN646Mm7G2mKmOdf0Ey/O2iz5bO1HucGDti7G6nXwQfMZdu1v1WF7/UkdbPhE2T46/IeOhrfeh5gMZC3192Vuf7aTtbPxMEb+D+iG7dK87Xz3ND8fx28mXpq//3u5C/KG5+Vz9Mdi/juOvlzLBeGjLj6js+9mvfejry6o+PbcCtyQpOkrpD2R+Ly6K/JtbMVVPVBbLxzzFx/O0hz+F/5yVD67+8/BLAxw346Hhvv4vf/KzQgdmrS9zfVb/hdHjLWKqrxpxKFISc4x9dqz1BmD/ygsE8dNZBgA4eq4UHSBXigBgt9I5xjNFAABBUgQAECRFAABBUgQAECRFAABBUgQAECRFAABBUgQAECRFAABBUgQAECRFAABBUgQAECRFAABBUgQAECRFAABBUgQAECRFAABBUgQAEBYxLauXAADHq0yKQjXHQVgsFqnT6rnjcaz1BmD/0jnG7TMAgCApAgAIkiIAgCApAgAIkiIAgCApAgAIkiIAgCApAgAIkiIAgCApAgAIkiIAgCApAgAIkiIAgCApAgAIkiIAgCApAgAIkiIAgCApAgAIi5iW1UsAgONVJkWhmuMgLBaL1Gn13PE41noDsH/pHOP2GQBAkBQBAARJEQBAkBQBAARJEQBAkBQBAARJEQBAkBQBAARJEQBAkBQBAARJEQBAkBQBAARJEQBAkBQBAARJEQBAkBQBAARJEQBAkBQBAIRFTMvqJQDA8SqTolDNcRAWi0XqtHrueBxrvQHYv3SOcfsMACBIigAAgqQIACBIigAAgqQIACBIigAAgqQIACBIigAAgqQIACBIigAAgqQIACBIigAAgqQIACBIigAAgqQIACBIigAAgqQIACBIigAAwiKmZfUSAOB4lUlRqOY4CIvFInVaPXc8jrXeAOxfOse4fQYAECRFAABBUgQAECRFAABBUgQAECRFAABBUgQAECRFAABBUgQAECRFAABBUgQAECRFAABBUgQAECRFAABBUgQAECRFAABBUgQAECRFAABhEdOyegkAcKyK4v/1O2azya9dwAAAAABJRU5ErkJggg==;" vertex="1" parent="OMmJDwg539r8jQ-gF5AK-121">
          <mxGeometry x="20" y="50" width="660" height="137.45" as="geometry" />
        </mxCell>
        <object label="" TestData="" TestSuite="" ExecutionFlag="" id="OMmJDwg539r8jQ-gF5AK-132">
          <mxCell style="strokeWidth=1;shadow=0;dashed=0;align=center;html=1;shape=mxgraph.mockup.containers.marginRect2;rectMarginTop=32;strokeColor=#666666;gradientColor=none;fontFamily=Helvetica;fontSize=17;fontColor=#666666;" vertex="1" parent="OMmJDwg539r8jQ-gF5AK-121">
            <mxGeometry x="-6" y="300" width="836.28" height="270" as="geometry" />
          </mxCell>
        </object>
        <mxCell id="OMmJDwg539r8jQ-gF5AK-133" value="&lt;font style=&quot;font-size: 10px;&quot;&gt;Test Suites&lt;/font&gt;" style="strokeColor=inherit;fillColor=inherit;gradientColor=inherit;strokeWidth=1;shadow=0;dashed=0;align=center;html=1;shape=mxgraph.mockup.containers.rrect;rSize=0;fontSize=17;fontColor=#666666;gradientColor=none;fontFamily=Helvetica;" vertex="1" parent="OMmJDwg539r8jQ-gF5AK-132">
          <mxGeometry width="60" height="25" relative="1" as="geometry">
            <mxPoint x="10" as="offset" />
          </mxGeometry>
        </mxCell>
        <mxCell id="OMmJDwg539r8jQ-gF5AK-134" value="&lt;font style=&quot;font-size: 8px;&quot;&gt;Model Designer&lt;/font&gt;" style="strokeColor=inherit;fillColor=inherit;gradientColor=inherit;strokeWidth=1;shadow=0;dashed=0;align=center;html=1;shape=mxgraph.mockup.containers.rrect;rSize=0;fontSize=17;fontColor=#666666;gradientColor=none;fontFamily=Helvetica;" vertex="1" parent="OMmJDwg539r8jQ-gF5AK-132">
          <mxGeometry width="60" height="25" relative="1" as="geometry">
            <mxPoint x="140" as="offset" />
          </mxGeometry>
        </mxCell>
        <mxCell id="OMmJDwg539r8jQ-gF5AK-135" value="" style="strokeWidth=1;shadow=0;dashed=0;align=center;html=1;shape=mxgraph.mockup.containers.topButton;rSize=5;strokeColor=#008cff;fillColor=#008cff;gradientColor=none;resizeWidth=1;movable=0;deletable=1;fontFamily=Helvetica;fontSize=17;fontColor=#666666;" vertex="1" parent="OMmJDwg539r8jQ-gF5AK-132">
          <mxGeometry width="810" height="7" relative="1" as="geometry">
            <mxPoint y="25" as="offset" />
          </mxGeometry>
        </mxCell>
        <mxCell id="OMmJDwg539r8jQ-gF5AK-136" value="&lt;span style=&quot;font-size: 8px;&quot;&gt;Test Data&lt;/span&gt;" style="strokeColor=inherit;fillColor=inherit;gradientColor=inherit;strokeWidth=1;shadow=0;dashed=0;align=center;html=1;shape=mxgraph.mockup.containers.rrect;rSize=0;fontSize=17;fontColor=#666666;gradientColor=none;fontFamily=Helvetica;" vertex="1" parent="OMmJDwg539r8jQ-gF5AK-132">
          <mxGeometry width="60" height="25" relative="1" as="geometry">
            <mxPoint x="210" as="offset" />
          </mxGeometry>
        </mxCell>
        <mxCell id="OMmJDwg539r8jQ-gF5AK-137" value="&lt;span style=&quot;font-size: 8px;&quot;&gt;Reports&lt;/span&gt;" style="strokeColor=inherit;fillColor=inherit;gradientColor=inherit;strokeWidth=1;shadow=0;dashed=0;align=center;html=1;shape=mxgraph.mockup.containers.rrect;rSize=0;fontSize=17;fontColor=#666666;gradientColor=none;fontFamily=Helvetica;" vertex="1" parent="OMmJDwg539r8jQ-gF5AK-132">
          <mxGeometry width="60" height="25" relative="1" as="geometry">
            <mxPoint x="280" as="offset" />
          </mxGeometry>
        </mxCell>
        <mxCell id="OMmJDwg539r8jQ-gF5AK-138" value="&lt;font style=&quot;font-size: 8px;&quot;&gt;Model&amp;nbsp;Designer&lt;/font&gt;" style="strokeWidth=1;shadow=0;dashed=0;align=center;html=1;shape=mxgraph.mockup.containers.rrect;rSize=0;fontSize=17;fontColor=#ffffff;strokeColor=#008cff;fillColor=#008cff;fontFamily=Helvetica;" vertex="1" parent="OMmJDwg539r8jQ-gF5AK-132">
          <mxGeometry x="136" width="64" height="25" as="geometry" />
        </mxCell>
        <mxCell id="OMmJDwg539r8jQ-gF5AK-140" value="&lt;font style=&quot;font-size: 8px;&quot;&gt;Test Cases&lt;/font&gt;" style="strokeColor=inherit;fillColor=inherit;gradientColor=inherit;strokeWidth=1;shadow=0;dashed=0;align=center;html=1;shape=mxgraph.mockup.containers.rrect;rSize=0;fontSize=17;fontColor=#666666;gradientColor=none;fontFamily=Helvetica;" vertex="1" parent="OMmJDwg539r8jQ-gF5AK-132">
          <mxGeometry x="76" width="60" height="25" as="geometry" />
        </mxCell>
        <mxCell id="OMmJDwg539r8jQ-gF5AK-167" value="" style="shape=image;verticalLabelPosition=bottom;labelBackgroundColor=default;verticalAlign=top;aspect=fixed;imageAspect=0;image=data:image/png,iVBORw0KGgoAAAANSUhEUgAAAl8AAABnCAYAAAA+CSf0AAAAAXNSR0IArs4c6QAAAARnQU1BAACxjwv8YQUAAAAJcEhZcwAADsMAAA7DAcdvqGQAAAgRSURBVHhe7d09XttIAwfg0XsWkmKTE5gTQJpUtOmgDM3eIF0aKJfubbfaJuEE4QROijV38WqkkS3J8hdYE5w8z++njT6QZjRjpL+twVuEEOblBADASKbTaZoLoQpfpXqJo1AURey0tMQhaFMAxtK/x/wv/QsAQAbCFwBARsIXAEBGwhcAQEY/IXw9htvTIhTFabh9TKs2an7+KtynNQAAx6oXvu7DVRGDTj1d9dPO4204XWx/CWGoCWb9+vxOgS312eltedZjO3C7dl5P/WnXcD6GI27TSvf3uJlWfp9/Om+sgN/Tmk++JmEyCeHuU/fm8/jl7/CQtr08d+HTz7tb8xQnH8O3+bz689vZTf2imtzMquX5/Fv4eFKt4skuw9eqLWchNu/d+UsMYAC/nzXh6224uCiv1g9/hy+LPHMfPl8/lNfzi3CR1iz132n3PrW4v1puO/0cfqTVS+1PsAb236ZMg/HW/XD9ef076HYdyum0KSB9+nJ6e9+pQ7xJ3V91l5eeWd9stvRL75OnxTkOtlU851chvgRi0D2P2xafDG0oZ9G+t+lndv2Uo2njdp3bn0jV80P9tjRGPx1jm56Ed/H3uTT9tzzI2v03ndsz23ulzNNwunLuV+FqY58D/DrmS1/nl9U33l/Ov85u5uXlej65maVNl/HbweaXX2fz8l10/TP1huU+1XKzfTKvd03bJzfllrhYH2e5vX+8+CNDx1tuX0rbymN/vZlUx63r29snnktT/tC2dn0Wy82x1p3fsj7d+o5vsM8W59fYs1/icpzf1FYry9GWclrtebmhgWad/qutrEuvnW6/9Pt819dVVzzOUr9tGlvOdWW/cvmntGl//7hLqy0H99/x3JpjrGxfPY9Oew+WubrP5j4HOE7xOtZWLq8JX82FMd00lhfS3gVz4OLYuYCubO9dtJuLcvsukvapV61eoJfadRyo++A+zbn0yl97c1zz82vrO75Y1lI670X9k737ZVjn3IfadVs5K+07bOWmW+meW7cuq+fdHKPqhz37Ka5fOvY2bf8utJfXveZL28ocaJO92nuwzkO/p91yum0FcJzitbBtw187pkcV8dHj/W34dFeuunwfzuqNC4//Lv9fRY2T12/T3PD2jtmPUD95OF8+rjiPhe3rLPxVXqnjI4xPt7N6VUv7EeKTDt84WH3HtWu/vH29OrBqn7baVs7C29flK2pfZ+F97NLq8fdjqIqaXIR3Ww5UPVoboZ+Or03T47zivJybhJtZbxxda/+dyxywV3tvrfPT+hzgmGz8qomTdxflJfshXJ9fl/8tL95/9qPX8AW6fRPa9QJevruOsbAz/bVa3GZnf1YDix+u/wk/WsU+3p5WN7zyHXh13CqjPdNB6juibf3SqG6cLfu21a7lPNVZfScO1x8+hL/Lu/vk4t3WENcu95D9dHxt2gy4j9PmP2B4TpmHbu+n9DnAMdkYvsr0FdI43XgFHH73efa+vMTHN6pf0oDYx/AlXjHLte/jRffVH/Vg+Gb7/ec0yDZp9t80WH5nJ+Hj/2/K8u7C3cqb7kn441X89z78M/CGfGcHre+ItvRLHazb2+/D1eltqD8zXNdWJ6G+R0/DIl9s6//nSoE6PDxUbwAu+i/Ch+vwoRqdnf4gpCl3jH76Vdp0yK5lHrS9B8492tbnAL+A8s1poz9WpD/uo1qzOk6jGc+xmNpjOEpp7Ec1TZrB8e1xHE257ak5xtC4kEba1hlH0owTae/TPf7lZazPuvEvq+XVx9u1vuOL5S0N1aV3boupV8fO9ub8NrRV1N6nabNN5TTb2mOBBqy+zpaabd1+TvWcXM4vq/6qp24xu/dT3LZ07G3alDd8rmv331Rmc8yntvcuZbb6d7jPAY5TvJ61FWlF+Q/HIo6n+a36LH5Nw/ldeR+ehW+LZ2fxKwjOw93kJsy+fXz2Y6nfrk33dtj23mqwzwGOU/8es/mxI7wA9+k53X7jnThm+hz4lQlfvGyP6S9txxzvxMuiz4FfnMeOR8gjssPTpgCMpX+PqcJXPQsAwBim0/rreyKffB0hn9IcnjYFYCz9e4wxXwAAGQlfAAAZCV8AABkJXwAAGQlfAAAZCV8AABkJXwAAGQlfAAAZCV8AABkJXwAAGQlfAAAZCV8AABkJXwAAGQlfAAAZCV8AABkJXwAAGQlfAAAZCV8AABkV5TSvZwEAGMN0Ok1zKXyV6iWOQlEUsdPSEoegTQEYS/8e47EjAEBGwhcAQEbCFwBARsIXAEBGwhcAQEbCFwBARsIXAEBGwhcAQEbCFwBARsIXAEBGwhcAQEbCFwBARsIXAEBGwhcAQEbCFwBARsIXAEBGwhcAQEbCFwBARkU5zetZAADGMJ1O01wKX6V6iaNQFEXstLTEIWhTAMbSv8d47AgAkJHwBQCQkfAFAJCR8AUAkJHwBQCQkfAFAJCR8AUAkJHwBQCQkfAFAJCR8AUAkJHwBQCQkfAFAJCR8AUAkJHwBQCQkfAFAJCR8AUAkJHwBQCQkfAFAJBRUU7zehYAgDFMp9M0l8JXqV7iKBRFETstLXEI2hSAsfTvMR47AgBkJHwBAGQkfAEAZCR8AQBkJHwBAGQkfAEAZCR8AQBkJHwBAGQkfAEAZCR8AQBkJHwBAGQkfAEAZCR8AQBkJHwBAGQkfAEAZCR8AQBkJHwBAGQkfAEAZFSU07yeBQBgDNPpNM2V4atcmL958yYtcgy+f/8e9NlhaVMAxtK/x3jsCACQTQj/AbfJ6Rb9PmegAAAAAElFTkSuQmCC;" vertex="1" parent="OMmJDwg539r8jQ-gF5AK-132">
          <mxGeometry x="26" y="60" width="707.18" height="120" as="geometry" />
        </mxCell>
        <mxCell id="OMmJDwg539r8jQ-gF5AK-130" value="&lt;font style=&quot;font-size: 8px;&quot;&gt;Model Designer&lt;/font&gt;" style="strokeColor=inherit;fillColor=inherit;gradientColor=inherit;strokeWidth=1;shadow=0;dashed=0;align=center;html=1;shape=mxgraph.mockup.containers.rrect;rSize=0;fontSize=17;fontColor=#666666;gradientColor=none;fontFamily=Helvetica;" vertex="1" parent="OMmJDwg539r8jQ-gF5AK-7">
          <mxGeometry x="70" y="300" width="60" height="25" as="geometry" />
        </mxCell>
      </root>
    </mxGraphModel>
  </diagram>
</mxfile>
